[Header]
FileType HTR
DataType HTRS
FileVersion 1
NumSegments 64
NumFrames 4
DataFrameRate 30
EulerRotationOrder ZYX
CalibrationUnits mm
RotationUnits Degrees
GlobalAxisofGravity Y
BoneLengthAxis Y
ScaleFactor 1.0
[SegmentNames&Hierarchy]
Hips	GLOBAL
Spine	Hips
Spine1	Spine
Spine2	Spine1
Neck	Spine2
Head	Neck
LeftEye	Head
RightEye	Head
LeftShoulder	Spine2
LeftArm	LeftShoulder
LeftForeArm	LeftArm
LeftHand	LeftForeArm
LeftHandThumb1	LeftHand
LeftHandThumb2	LeftHandThumb1
LeftHandThumb3	LeftHandThumb2
LeftHandThumb4	LeftHandThumb3
LeftHandIndex1	LeftHand
LeftHandIndex2	LeftHandIndex1
LeftHandIndex3	LeftHandIndex2
LeftHandIndex4	LeftHandIndex3
LeftHandMiddle1	LeftHand
LeftHandMiddle2	LeftHandMiddle1
LeftHandMiddle3	LeftHandMiddle2
LeftHandMiddle4	LeftHandMiddle3
LeftHandRing1	LeftHand
LeftHandRing2	LeftHandRing1
LeftHandRing3	LeftHandRing2
LeftHandRing4	LeftHandRing3
LeftHandPinky1	LeftHand
LeftHandPinky2	LeftHandPinky1
LeftHandPinky3	LeftHandPinky2
LeftHandPinky4	LeftHandPinky3
RightShoulder	Spine2
RightArm	RightShoulder
RightForeArm	RightArm
RightHand	RightForeArm
RightHandPinky1	RightHand
RightHandPinky2	RightHandPinky1
RightHandPinky3	RightHandPinky2
RightHandPinky4	RightHandPinky3
RightHandRing1	RightHand
RightHandRing2	RightHandRing1
RightHandRing3	RightHandRing2
RightHandRing4	RightHandRing3
RightHandMiddle1	RightHand
RightHandMiddle2	RightHandMiddle1
RightHandMiddle3	RightHandMiddle2
RightHandMiddle4	RightHandMiddle3
RightHandIndex1	RightHand
RightHandIndex2	RightHandIndex1
RightHandIndex3	RightHandIndex2
RightHandIndex4	RightHandIndex3
RightHandThumb1	RightHand
RightHandThumb2	RightHandThumb1
RightHandThumb3	RightHandThumb2
RightHandThumb4	RightHandThumb3
LeftUpLeg	Hips
LeftLeg	LeftUpLeg
LeftFoot	LeftLeg
LeftToeBase	LeftFoot
RightUpLeg	Hips
RightLeg	RightUpLeg
RightFoot	RightLeg
RightToeBase	RightFoot
[BasePosition]
Hips	0	0	0	0	0	0	1
Spine	0	0	0	0	0	0	1
Spine1	0	0	0	0	0	0	1
Spine2	0	0	0	0	0	0	1
Neck	0	0	0	0	0	0	1
Head	0	0	0	0	0	0	1
LeftEye	0	0	0	0	0	0	1
RightEye	0	0	0	0	0	0	1
LeftShoulder	0	0	0	0	0	0	1
LeftArm	0	0	0	0	0	0	1
LeftForeArm	0	0	0	0	0	0	1
LeftHand	0	0	0	0	0	0	1
LeftHandThumb1	0	0	0	0	0	0	1
LeftHandThumb2	0	0	0	0	0	0	1
LeftHandThumb3	0	0	0	0	0	0	1
LeftHandThumb4	0	0	0	0	0	0	1
LeftHandIndex1	0	0	0	0	0	0	1
LeftHandIndex2	0	0	0	0	0	0	1
LeftHandIndex3	0	0	0	0	0	0	1
LeftHandIndex4	0	0	0	0	0	0	1
LeftHandMiddle1	0	0	0	0	0	0	1
LeftHandMiddle2	0	0	0	0	0	0	1
LeftHandMiddle3	0	0	0	0	0	0	1
LeftHandMiddle4	0	0	0	0	0	0	1
LeftHandRing1	0	0	0	0	0	0	1
LeftHandRing2	0	0	0	0	0	0	1
LeftHandRing3	0	0	0	0	0	0	1
LeftHandRing4	0	0	0	0	0	0	1
LeftHandPinky1	0	0	0	0	0	0	1
LeftHandPinky2	0	0	0	0	0	0	1
LeftHandPinky3	0	0	0	0	0	0	1
LeftHandPinky4	0	0	0	0	0	0	1
RightShoulder	0	0	0	0	0	0	1
RightArm	0	0	0	0	0	0	1
RightForeArm	0	0	0	0	0	0	1
RightHand	0	0	0	0	0	0	1
RightHandPinky1	0	0	0	0	0	0	1
RightHandPinky2	0	0	0	0	0	0	1
RightHandPinky3	0	0	0	0	0	0	1
RightHandPinky4	0	0	0	0	0	0	1
RightHandRing1	0	0	0	0	0	0	1
RightHandRing2	0	0	0	0	0	0	1
RightHandRing3	0	0	0	0	0	0	1
RightHandRing4	0	0	0	0	0	0	1
RightHandMiddle1	0	0	0	0	0	0	1
RightHandMiddle2	0	0	0	0	0	0	1
RightHandMiddle3	0	0	0	0	0	0	1
RightHandMiddle4	0	0	0	0	0	0	1
RightHandIndex1	0	0	0	0	0	0	1
RightHandIndex2	0	0	0	0	0	0	1
RightHandIndex3	0	0	0	0	0	0	1
RightHandIndex4	0	0	0	0	0	0	1
RightHandThumb1	0	0	0	0	0	0	1
RightHandThumb2	0	0	0	0	0	0	1
RightHandThumb3	0	0	0	0	0	0	1
RightHandThumb4	0	0	0	0	0	0	1
LeftUpLeg	0	0	0	0	0	0	1
LeftLeg	0	0	0	0	0	0	1
LeftFoot	0	0	0	0	0	0	1
LeftToeBase	0	0	0	0	0	0	1
RightUpLeg	0	0	0	0	0	0	1
RightLeg	0	0	0	0	0	0	1
RightFoot	0	0	0	0	0	0	1
RightToeBase	0	0	0	0	0	0	1
[Hips]
30 	-18.49794006	977.0770264	28.98092079	-17.80275154	5.410858631	-7.718953609	1.0
31 	-19.44260788	976.8309937	29.43011856	-17.93615913	5.451454163	-7.684101582	1.0
32 	-20.36901665	976.605835	29.7748661	-18.06167984	5.484341621	-7.645875454	1.0
33 	-21.27376556	976.4159546	29.98001099	-18.17595673	5.508898735	-7.604947567	1.0
[Spine]
30 	0	101.8159943	1.315000057	-0.3785257339	2.226764679	0.8445845842	1.0
31 	0	101.8159943	1.315000057	-0.4433896542	2.236816645	0.809700489	1.0
32 	0	101.8159943	1.315000057	-0.4958805144	2.246931553	0.7793233991	1.0
33 	0	101.8159943	1.315000057	-0.5333951116	2.257432461	0.7544593811	1.0
[Spine1]
30 	0	100.8349991	-10.00800037	-0.1719089895	1.845143318	-0.1656998992	1.0
31 	0	100.8349991	-10.00800037	-0.1919677109	1.865000844	-0.1898105592	1.0
32 	0	100.8349991	-10.00800037	-0.2078437805	1.883984566	-0.2111779898	1.0
33 	0	100.8349991	-10.00800037	-0.2188252658	1.902319312	-0.2292482853	1.0
[Spine2]
30 	0	91	-13.73399925	-0.1726992577	1.84845078	-0.2196484655	1.0
31 	0	91	-13.73399925	-0.1923999339	1.868234515	-0.2448637038	1.0
32 	0	91	-13.73399925	-0.208001405	1.887214541	-0.2671150863	1.0
33 	0	91	-13.73399925	-0.2188130319	1.905618787	-0.2857924998	1.0
[Neck]
30 	0	166.7169952	-25.16200066	9.851901054	-3.021816254	1.074273109	1.0
31 	0	166.7169952	-25.16200066	9.508234024	-3.202496052	0.9228705168	1.0
32 	0	166.7169952	-25.16200066	9.171080589	-3.378583193	0.7743782401	1.0
33 	0	166.7169952	-25.16200066	8.840622902	-3.548360825	0.6307113171	1.0
[Head]
30 	0	96.17900085	16.84999847	3.712576866	-9.941842079	3.316811562	1.0
31 	0	96.17900085	16.84999847	2.947840929	-10.48540401	3.145755291	1.0
32 	0	96.17900085	16.84999847	2.19277072	-11.01417542	2.977998734	1.0
33 	0	96.17900085	16.84999847	1.447929382	-11.52471542	2.817443371	1.0
[LeftEye]
30 	30.6760006	64.09500122	92.83599854	0	0	0	1.0
31 	30.6760006	64.09500122	92.83599854	0	0	0	1.0
32 	30.6760006	64.09500122	92.83599854	0	0	0	1.0
33 	30.6760006	64.09500122	92.83599854	0	0	0	1.0
[RightEye]
30 	-30.6760006	64.09500122	92.83499908	0	0	0	1.0
31 	-30.6760006	64.09500122	92.83499908	0	0	0	1.0
32 	-30.6760006	64.09500122	92.83499908	0	0	0	1.0
33 	-30.6760006	64.09500122	92.83499908	0	0	0	1.0
[LeftShoulder]
30 	45.70400238	109.4599991	-26.28000069	3.819886923	-12.70378399	-12.54647732	1.0
31 	45.70400238	109.4599991	-26.28000069	3.796767473	-12.61511326	-12.53179836	1.0
32 	45.70400238	109.4599991	-26.28000069	3.774277687	-12.52847862	-12.51789665	1.0
33 	45.70400238	109.4599991	-26.28000069	3.752713203	-12.44433784	-12.50593567	1.0
[LeftArm]
30 	105.923996	-5.24600029	-22.32099915	-33.67738342	-6.039142132	-53.51871872	1.0
31 	105.923996	-5.24600029	-22.32099915	-33.95899963	-6.20498085	-53.17526627	1.0
32 	105.923996	-5.24600029	-22.32099915	-34.15702057	-6.370915413	-52.86639023	1.0
33 	105.923996	-5.24600029	-22.32099915	-34.24448013	-6.53707552	-52.59981155	1.0
[LeftForeArm]
30 	278.414978	-0.0009999999311	0	9.397952454e-06	-7.237253189	-0.0001869761763	1.0
31 	278.414978	-0.0009999999311	0	1.023921504e-05	-6.752905369	-0.0001877664909	1.0
32 	278.414978	-0.0009999999311	0	1.094365234e-05	-6.244549751	-0.0001889102132	1.0
33 	278.414978	-0.0009999999311	0	1.151122433e-05	-5.702563286	-0.0001901989599	1.0
[LeftHand]
30 	283.2879944	0	0	-65.56401825	-10.16574955	5.165215969	1.0
31 	283.2879944	0	0	-64.87375641	-9.905799866	5.215970993	1.0
32 	283.2879944	0	0	-64.17946625	-9.633825302	5.272175789	1.0
33 	283.2879944	0	0	-63.4880867	-9.341962814	5.341211796	1.0
[LeftHandThumb1]
30 	24.6609993	-15.75	26.8239994	-24.24622345	-6.973187923	15.35330009	1.0
31 	24.6609993	-15.75	26.8239994	-23.65113258	-6.601605415	14.86731625	1.0
32 	24.6609993	-15.75	26.8239994	-22.98723412	-6.1924963	14.36846256	1.0
33 	24.6609993	-15.75	26.8239994	-22.22100067	-5.729280472	13.84927654	1.0
[LeftHandThumb2]
30 	32.29800034	-18.64699936	18.64699936	19.59083176	24.80257607	10.98193073	1.0
31 	32.29800034	-18.64699936	18.64699936	19.59655571	24.7915287	11.02385712	1.0
32 	32.29800034	-18.64699936	18.64699936	19.60447693	24.76626587	11.10752583	1.0
33 	32.29800034	-18.64699936	18.64699936	19.61558342	24.72005844	11.25248146	1.0
[LeftHandThumb3]
30 	26.52600098	-15.31499958	15.31499958	-9.219479561	-1.976718903	-1.265729308	1.0
31 	26.52600098	-15.31499958	15.31499958	-9.286683083	-1.902526021	-0.9394900203	1.0
32 	26.52600098	-15.31499958	15.31499958	-9.365636826	-1.805572033	-0.5846170783	1.0
33 	26.52600098	-15.31499958	15.31499958	-9.461627007	-1.675495863	-0.1886079907	1.0
[LeftHandThumb4]
30 	19.54599953	-11.28499985	11.28499985	0	0	0	1.0
31 	19.54599953	-11.28499985	11.28499985	0	0	0	1.0
32 	19.54599953	-11.28499985	11.28499985	0	0	0	1.0
33 	19.54599953	-11.28499985	11.28499985	0	0	0	1.0
[LeftHandIndex1]
30 	91.09299469	-5.170999527	22.60099792	1.076213837	-3.263587952	16.74824524	1.0
31 	91.09299469	-5.170999527	22.60099792	1.101850748	-3.095707178	15.7780304	1.0
32 	91.09299469	-5.170999527	22.60099792	1.126017332	-2.917995214	14.73214912	1.0
33 	91.09299469	-5.170999527	22.60099792	1.147745132	-2.727293015	13.58199596	1.0
[LeftHandIndex2]
30 	36.76399994	0	0	-0.1968638152	1.503796339	-14.91134739	1.0
31 	36.76399994	0	0	-0.1986286342	1.510428667	-14.97870827	1.0
32 	36.76399994	0	0	-0.200525403	1.517529964	-15.05084705	1.0
33 	36.76399994	0	0	-0.2025987357	1.525255084	-15.12934017	1.0
[LeftHandIndex3]
30 	28.83100128	0	0	-0.02769611776	0.56781739	-5.57482481	1.0
31 	28.83100128	0	0	-0.02836202458	0.5746492743	-5.642087936	1.0
32 	28.83100128	0	0	-0.02908192016	0.5819650292	-5.714122772	1.0
33 	28.83100128	0	0	-0.02987454459	0.5899241567	-5.792506218	1.0
[LeftHandIndex4]
30 	23.92700005	0	0	0	0	0	1.0
31 	23.92700005	0	0	0	0	0	1.0
32 	23.92700005	0	0	0	0	0	1.0
33 	23.92700005	0	0	0	0	0	1.0
[LeftHandMiddle1]
30 	95.33399963	0	0	0.2503981292	-0.8896279335	4.951566219	1.0
31 	95.33399963	0	0	0.2275495976	-0.7097603083	4.223970413	1.0
32 	95.33399963	0	0	0.2000058144	-0.5102542043	3.404568672	1.0
33 	95.33399963	0	0	0.1657356024	-0.2834478915	2.45646286	1.0
[LeftHandMiddle2]
30 	36.98199844	0	0	-0.2422711849	1.665171266	-16.5558548	1.0
31 	36.98199844	0	0	-0.2422695458	1.665175676	-16.55588531	1.0
32 	36.98199844	0	0	-0.2423900068	1.665584207	-16.56005669	1.0
33 	36.98199844	0	0	-0.2426898479	1.666586518	-16.5703125	1.0
[LeftHandMiddle3]
30 	29.50900078	0	0	-0.2730907202	1.76546979	-17.5853138	1.0
31 	29.50900078	0	0	-0.2730406523	1.765316844	-17.5837841	1.0
32 	29.50900078	0	0	-0.2731175423	1.765559435	-17.5863266	1.0
33 	29.50900078	0	0	-0.2733811438	1.766383648	-17.59485626	1.0
[LeftHandMiddle4]
30 	28.3390007	0	0	0	0	0	1.0
31 	28.3390007	0	0	0	0	0	1.0
32 	28.3390007	0	0	0	0	0	1.0
33 	28.3390007	0	0	0	0	0	1.0
[LeftHandRing1]
30 	91.04499817	-0.4390000105	-18.65100098	-1.19106555	4.148560524	-21.23064995	1.0
31 	91.04499817	-0.4390000105	-18.65100098	-1.218857646	4.234319687	-21.59994888	1.0
32 	91.04499817	-0.4390000105	-18.65100098	-1.249914289	4.312560558	-22.00893402	1.0
33 	91.04499817	-0.4390000105	-18.65100098	-1.285558701	4.379290104	-22.47341156	1.0
[LeftHandRing2]
30 	31.54000092	0	0	-0.6251343489	2.628815889	-26.74661827	1.0
31 	31.54000092	0	0	-0.6222062707	2.623010635	-26.68276787	1.0
32 	31.54000092	0	0	-0.6195503473	2.617745638	-26.62486076	1.0
33 	31.54000092	0	0	-0.6173104644	2.613306999	-26.57604027	1.0
[LeftHandRing3]
30 	29.37700081	0	0	-0.4913235009	2.344775438	-23.66344261	1.0
31 	29.37700081	0	0	-0.4886083603	2.338585138	-23.59712029	1.0
32 	29.37700081	0	0	-0.4861562848	2.332995415	-23.53722763	1.0
33 	29.37700081	0	0	-0.4841056466	2.328321934	-23.48715019	1.0
[LeftHandRing4]
30 	26.47500038	0	0	0	0	0	1.0
31 	26.47500038	0	0	0	0	0	1.0
32 	26.47500038	0	0	0	0	0	1.0
33 	26.47500038	0	0	0	0	0	1.0
[LeftHandPinky1]
30 	80.77799988	-4.887000084	-38.06099701	-1.50853765	5.530842304	-24.66994476	1.0
31 	80.77799988	-4.887000084	-38.06099701	-1.524481654	5.513562679	-24.89022636	1.0
32 	80.77799988	-4.887000084	-38.06099701	-1.544402719	5.495477676	-25.15141487	1.0
33 	80.77799988	-4.887000084	-38.06099701	-1.570113778	5.477475643	-25.4716053	1.0
[LeftHandPinky2]
30 	36	0	0	-0.2923959196	1.824474573	-18.19415855	1.0
31 	36	0	0	-0.2974597812	1.839939952	-18.35382271	1.0
32 	36	0	0	-0.3030118346	1.856734157	-18.52738762	1.0
33 	36	0	0	-0.3092283607	1.875317335	-18.71967697	1.0
[LeftHandPinky3]
30 	21.14200211	0	0	-0.2640356123	1.735816121	-17.28107071	1.0
31 	21.14200211	0	0	-0.2689047754	1.751520872	-17.44237518	1.0
32 	21.14200211	0	0	-0.2742422819	1.768565536	-17.61760712	1.0
33 	21.14200211	0	0	-0.2802158296	1.78740859	-17.81155205	1.0
[LeftHandPinky4]
30 	19.75699997	0	0	0	0	0	1.0
31 	19.75699997	0	0	0	0	0	1.0
32 	19.75699997	0	0	0	0	0	1.0
33 	19.75699997	0	0	0	0	0	1.0
[RightShoulder]
30 	-45.70000076	109.4620056	-26.28000069	4.545655727	11.94509888	16.13837624	1.0
31 	-45.70000076	109.4620056	-26.28000069	4.548696041	11.94933414	16.17153358	1.0
32 	-45.70000076	109.4620056	-26.28000069	4.550561905	11.94947433	16.20339775	1.0
33 	-45.70000076	109.4620056	-26.28000069	4.55094099	11.9447813	16.23205948	1.0
[RightArm]
30 	-105.9280014	-5.248000145	-22.32099915	-18.8264637	0.04628564045	54.0015831	1.0
31 	-105.9280014	-5.248000145	-22.32099915	-18.69878387	0.09972124547	53.94818115	1.0
32 	-105.9280014	-5.248000145	-22.32099915	-18.50341988	0.1612232178	53.91895294	1.0
33 	-105.9280014	-5.248000145	-22.32099915	-18.21582603	0.2328727096	53.9184227	1.0
[RightForeArm]
30 	-278.414978	0	0	-5.029359727e-06	7.016183853	9.299372323e-06	1.0
31 	-278.414978	0	0	-5.074197361e-06	6.91139555	7.549856036e-06	1.0
32 	-278.414978	0	0	-5.009147117e-06	6.803454399	5.681295534e-06	1.0
33 	-278.414978	0	0	-4.869618806e-06	6.687783718	3.768635224e-06	1.0
[RightHand]
30 	-283.2879944	0	0.0009999999311	-53.69827271	11.72463989	-6.775504589	1.0
31 	-283.2879944	0	0.0009999999311	-53.46977615	11.66723824	-6.847352982	1.0
32 	-283.2879944	0	0.0009999999311	-53.20494843	11.57348537	-6.922915459	1.0
33 	-283.2879944	0	0.0009999999311	-52.89015579	11.42024517	-7.004374981	1.0
[RightHandPinky1]
30 	-80.76699829	-4.885000229	-38.06000137	-4.217852592	-2.576230526	55.37592697	1.0
31 	-80.76699829	-4.885000229	-38.06000137	-4.223841667	-2.464996576	55.30991364	1.0
32 	-80.76699829	-4.885000229	-38.06000137	-4.225193977	-2.368486881	55.21028519	1.0
33 	-80.76699829	-4.885000229	-38.06000137	-4.219248295	-2.295244932	55.05722427	1.0
[RightHandPinky2]
30 	-36	0	0.0009999999311	-0.3702411652	-1.815833688	23.06292915	1.0
31 	-36	0	0.0009999999311	-0.3673767745	-1.809117675	22.97273254	1.0
32 	-36	0	0.0009999999311	-0.3643325567	-1.801949024	22.87651825	1.0
33 	-36	0	0.0009999999311	-0.3610049188	-1.794071436	22.7708683	1.0
[RightHandPinky3]
30 	-21.14200211	0	0	-0.3394405842	-1.741619706	22.05031776	1.0
31 	-21.14200211	0	0	-0.3365473747	-1.734477639	21.9550705	1.0
32 	-21.14200211	0	0	-0.3335022032	-1.726932406	21.85449982	1.0
33 	-21.14200211	0	0	-0.3302173316	-1.718756557	21.74559784	1.0
[RightHandPinky4]
30 	-19.75699997	0	0	0	0	0	1.0
31 	-19.75699997	0	0	0	0	0	1.0
32 	-19.75699997	0	0	0	0	0	1.0
33 	-19.75699997	0	0	0	0	0	1.0
[RightHandRing1]
30 	-91.03599548	-0.4390000105	-18.65100098	-2.737963915	1.630767941	42.84617615	1.0
31 	-91.03599548	-0.4390000105	-18.65100098	-2.73679328	1.647848964	42.83320236	1.0
32 	-91.03599548	-0.4390000105	-18.65100098	-2.734425068	1.645459652	42.80521774	1.0
33 	-91.03599548	-0.4390000105	-18.65100098	-2.729932308	1.613225102	42.75084305	1.0
[RightHandRing2]
30 	-31.54000092	0	0	-0.4237094223	-1.936572671	24.6751976	1.0
31 	-31.54000092	0	0	-0.4266049266	-1.942860842	24.76079941	1.0
32 	-31.54000092	0	0	-0.4294470847	-1.949035406	24.84484863	1.0
33 	-31.54000092	0	0	-0.4321318269	-1.954869986	24.92426682	1.0
[RightHandRing3]
30 	-29.37700081	0	0	-0.327506423	-1.71184051	21.65392494	1.0
31 	-29.37700081	0	0	-0.3300518095	-1.718243361	21.73905373	1.0
32 	-29.37700081	0	0	-0.3325475752	-1.724524021	21.82255173	1.0
33 	-29.37700081	0	0	-0.334900409	-1.730446935	21.90129089	1.0
[RightHandRing4]
30 	-26.47500038	0	0	0	0	0	1.0
31 	-26.47500038	0	0	0	0	0	1.0
32 	-26.47500038	0	0	0	0	0	1.0
33 	-26.47500038	0	0	0	0	0	1.0
[RightHandMiddle1]
30 	-95.32500458	0	0	-0.6899471283	-1.550989866	14.82322788	1.0
31 	-95.32500458	0	0	-0.7121471167	-1.577904105	15.19901085	1.0
32 	-95.32500458	0	0	-0.7370588183	-1.613870025	15.61626244	1.0
33 	-95.32500458	0	0	-0.7657181025	-1.663475394	16.09034538	1.0
[RightHandMiddle2]
30 	-36.98199844	0	0	-0.1495139897	-1.168007255	14.57997704	1.0
31 	-36.98199844	0	0	-0.1515251994	-1.175734401	14.67859936	1.0
32 	-36.98199844	0	0	-0.1536438167	-1.183843493	14.78212166	1.0
33 	-36.98199844	0	0	-0.155899331	-1.192433	14.89181519	1.0
[RightHandMiddle3]
30 	-29.50900078	0	0	-0.1708722562	-1.249220729	15.59328747	1.0
31 	-29.50900078	0	0	-0.1730189174	-1.256909609	15.69188213	1.0
32 	-29.50900078	0	0	-0.1752786189	-1.264975071	15.79533005	1.0
33 	-29.50900078	0	0	-0.1776820719	-1.273513198	15.90487671	1.0
[RightHandMiddle4]
30 	-28.3390007	0	0.0009999999311	0	0	0	1.0
31 	-28.3390007	0	0.0009999999311	0	0	0	1.0
32 	-28.3390007	0	0.0009999999311	0	0	0	1.0
33 	-28.3390007	0	0.0009999999311	0	0	0	1.0
[RightHandIndex1]
30 	-91.08300018	-5.167999744	22.60099792	1.37302351	-0.5449003577	-11.08332062	1.0
31 	-91.08300018	-5.167999744	22.60099792	1.349544883	-0.5247821808	-10.50139904	1.0
32 	-91.08300018	-5.167999744	22.60099792	1.321479917	-0.5124971271	-9.807312012	1.0
33 	-91.08300018	-5.167999744	22.60099792	1.28685081	-0.5124363899	-8.951388359	1.0
[RightHandIndex2]
30 	-36.76399994	0	0	-0.08594379574	-0.8892601728	11.04828072	1.0
31 	-36.76399994	0	0	-0.08745317906	-0.8971958756	11.14804173	1.0
32 	-36.76399994	0	0	-0.08929310739	-0.906588614	11.26625252	1.0
33 	-36.76399994	0	0	-0.09160918742	-0.9180683494	11.41089821	1.0
[RightHandIndex3]
30 	-28.83100128	0	0	-0.001869313652	-0.1339844167	1.654480577	1.0
31 	-28.83100128	0	0	-0.002066730056	-0.1421608627	1.75544107	1.0
32 	-28.83100128	0	0	-0.002352980198	-0.1518317014	1.874882936	1.0
33 	-28.83100128	0	0	-0.002769018989	-0.1636421382	2.020787954	1.0
[RightHandIndex4]
30 	-23.92700005	0	0	0	0	0	1.0
31 	-23.92700005	0	0	0	0	0	1.0
32 	-23.92700005	0	0	0	0	0	1.0
33 	-23.92700005	0	0	0	0	0	1.0
[RightHandThumb1]
30 	-24.64799881	-15.72700024	26.82600021	-19.72899818	26.7380352	-5.363622189	1.0
31 	-24.64799881	-15.72700024	26.82600021	-19.20823097	26.02328491	-5.156848431	1.0
32 	-24.64799881	-15.72700024	26.82600021	-18.58282661	25.18328667	-4.923119545	1.0
33 	-24.64799881	-15.72700024	26.82600021	-17.80609322	24.16503906	-4.650500298	1.0
[RightHandThumb2]
30 	-32.29800034	-18.64699936	18.64699936	20.5862999	-28.4778347	-7.217679501	1.0
31 	-32.29800034	-18.64699936	18.64699936	20.64970779	-28.43945885	-7.528222561	1.0
32 	-32.29800034	-18.64699936	18.64699936	20.72428322	-28.37278748	-7.946192265	1.0
33 	-32.29800034	-18.64699936	18.64699936	20.81473732	-28.26458549	-8.520009041	1.0
[RightHandThumb3]
30 	-26.52600098	-15.31399918	15.31399918	-6.906972885	4.358050823	11.72516727	1.0
31 	-26.52600098	-15.31399918	15.31399918	-6.97602129	4.296945095	11.2811451	1.0
32 	-26.52600098	-15.31399918	15.31399918	-7.082120419	4.18144083	10.7171936	1.0
33 	-26.52600098	-15.31399918	15.31399918	-7.242324352	3.986028671	9.980501175	1.0
[RightHandThumb4]
30 	-19.54599953	-11.28499985	11.28499985	0	0	0	1.0
31 	-19.54599953	-11.28499985	11.28499985	0	0	0	1.0
32 	-19.54599953	-11.28499985	11.28499985	0	0	0	1.0
33 	-19.54599953	-11.28499985	11.28499985	0	0	0	1.0
[LeftUpLeg]
30 	82.07800293	-67.51699829	-15.99599934	-10.77982998	16.01991844	14.29255581	1.0
31 	82.07800293	-67.51699829	-15.99599934	-10.63780689	15.93255043	14.30468559	1.0
32 	82.07800293	-67.51699829	-15.99599934	-10.50348377	15.84750652	14.31054306	1.0
33 	82.07800293	-67.51699829	-15.99599934	-10.38034248	15.7653017	14.3088789	1.0
[LeftLeg]
30 	0	-443.7049866	2.845999956	41.19294739	-7.391171455	6.000334263	1.0
31 	0	-443.7049866	2.845999956	41.2050972	-7.386400223	6.115613461	1.0
32 	0	-443.7049866	2.845999956	41.20905304	-7.376591682	6.229917526	1.0
33 	0	-443.7049866	2.845999956	41.20016861	-7.360537052	6.34394455	1.0
[LeftFoot]
30 	0	-444.2789917	-29.8219986	-15.26267242	-8.318181992	-8.448311806	1.0
31 	0	-444.2789917	-29.8219986	-15.34157848	-8.359733582	-8.496242523	1.0
32 	0	-444.2789917	-29.8219986	-15.40849209	-8.395472527	-8.542295456	1.0
33 	0	-444.2789917	-29.8219986	-15.45929146	-8.424754143	-8.586274147	1.0
[LeftToeBase]
30 	0	-87.28699493	107.1060028	-5.743225098	-1.895053515e-06	4.78037876e-08	1.0
31 	0	-87.28699493	107.1060028	-5.752476692	-4.74301396e-06	3.889472282e-07	1.0
32 	0	-87.28699493	107.1060028	-5.760784626	-7.278508292e-06	7.061776159e-07	1.0
33 	0	-87.28699493	107.1060028	-5.768023968	-9.28409554e-06	9.548765547e-07	1.0
[RightUpLeg]
30 	-82.07800293	-67.51699829	-15.99599934	2.482144117	-12.14198208	6.765985012	1.0
31 	-82.07800293	-67.51699829	-15.99599934	2.576714516	-12.09284878	6.855116367	1.0
32 	-82.07800293	-67.51699829	-15.99599934	2.657968521	-12.04295349	6.940515041	1.0
33 	-82.07800293	-67.51699829	-15.99599934	2.721957684	-11.99268055	7.023170948	1.0
[RightLeg]
30 	0	-443.7049866	2.861999989	36.16741943	-6.539509773	-7.944595337	1.0
31 	0	-443.7049866	2.861999989	36.25465012	-6.469865799	-8.04236412	1.0
32 	0	-443.7049866	2.861999989	36.33935165	-6.399631023	-8.140067101	1.0
33 	0	-443.7049866	2.861999989	36.41719055	-6.329760075	-8.237177849	1.0
[RightFoot]
30 	0	-444.2770081	-29.83799934	-22.87401962	-12.18797588	8.818737984	1.0
31 	0	-444.2770081	-29.83799934	-23.02368164	-12.34015942	8.889369965	1.0
32 	0	-444.2770081	-29.83799934	-23.15970993	-12.48410416	8.954546928	1.0
33 	0	-444.2770081	-29.83799934	-23.27668953	-12.61880684	9.011698723	1.0
[RightToeBase]
30 	0	-87.28699493	107.1060028	-8.345773697	6.977782959e-06	-5.958715974e-07	1.0
31 	0	-87.28699493	107.1060028	-8.397406578	5.332008186e-06	-8.644111631e-07	1.0
32 	0	-87.28699493	107.1060028	-8.447174072	3.577785492e-06	-1.064763751e-06	1.0
33 	0	-87.28699493	107.1060028	-8.494520187	1.810121375e-06	-1.159899284e-06	1.0
[EndOfFile]
